# This file uses centimeters as units for non-parametric coordinates.

mtllib bed.mtl
g default
v -0.500000 0.223135 4.219508
v 1.691937 0.223135 4.219508
v -0.500000 0.500009 4.219508
v 1.691937 0.500009 4.219508
v -0.500000 0.500004 -0.500000
v 1.691937 0.500004 -0.500000
v -0.500000 0.223135 -0.500000
v 1.691937 0.223135 -0.500000
v 0.595969 0.500009 3.470842
v 0.595969 0.500009 4.219508
v 1.691937 0.500009 3.470842
v 0.595969 0.500004 -0.500000
v -0.500000 0.500009 3.470842
v -0.320156 0.679862 4.039664
v -0.388979 0.666172 4.108487
v -0.447325 0.627187 4.166833
v -0.486310 0.568841 4.205818
v -0.486310 0.568841 3.484532
v -0.447325 0.627187 3.523517
v -0.388979 0.666172 3.581863
v -0.320156 0.679862 3.650686
v 0.595969 0.475314 4.039664
v 0.595969 0.666172 4.108487
v 0.595969 0.627187 4.166833
v 0.595969 0.568841 4.205818
v 0.595969 0.568841 3.484532
v 0.595969 0.627187 3.523517
v 0.595969 0.666172 3.581863
v 0.595969 0.475314 3.650686
v 1.512093 0.679862 4.039664
v 1.580917 0.666172 4.108487
v 1.639262 0.627187 4.166833
v 1.678247 0.568841 4.205818
v 1.512093 0.679862 3.650686
v 1.580917 0.666172 3.581863
v 1.639262 0.627187 3.523517
v 1.678247 0.568841 3.484532
v 0.555857 0.679862 3.845175
v -0.320156 0.679862 3.845175
v 0.555857 0.679862 4.039664
v 0.595969 0.475314 3.845175
v 0.555857 0.679862 3.650686
v 0.636081 0.679862 3.845175
v 0.636080 0.679862 4.039664
v 1.512093 0.679862 3.845175
v 0.636080 0.679862 3.650686
v 1.691937 0.500012 3.197161
v 0.595969 0.500012 3.197161
v -0.500000 0.500012 3.197161
v 1.681294 0.539737 3.186518
v 1.652216 0.568815 3.157440
v 1.612495 0.579458 3.117719
v 1.612495 0.579450 -0.420558
v 1.652216 0.568807 -0.460279
v 1.681294 0.539729 -0.489357
v 0.595969 0.579450 -0.420558
v 0.595969 0.568807 -0.460279
v 0.595969 0.539729 -0.489357
v 0.595969 0.539737 3.186518
v 0.595969 0.568815 3.157440
v 0.595969 0.579458 3.117719
v -0.420558 0.579450 -0.420558
v -0.460279 0.568807 -0.460279
v -0.489357 0.539729 -0.489357
v -0.420558 0.579458 3.117719
v -0.460279 0.568815 3.157440
v -0.489357 0.539737 3.186518
v 1.691937 0.223135 1.859754
v -0.500000 0.223135 1.859754
v -0.379822 0.223135 -0.381148
v -0.500000 0.223135 -0.381148
v -0.379822 0.223135 -0.500000
v 1.584489 0.223135 -0.381148
v 1.584489 0.223135 -0.500000
v 1.691937 0.223135 -0.381148
v 1.584489 0.223135 4.096060
v 1.691937 0.223135 4.096060
v 1.584489 0.223135 4.219508
v -0.379822 0.223135 4.096060
v -0.379822 0.223135 4.219508
v -0.500000 0.223135 4.096060
v -0.500000 -0.280748 -0.500000
v -0.500000 -0.280748 -0.381148
v -0.379822 -0.280748 -0.500000
v -0.379822 -0.280748 -0.381148
v 1.584489 -0.280748 -0.500000
v 1.691937 -0.280748 -0.500000
v 1.691937 -0.280748 -0.381148
v 1.584489 -0.280748 -0.381148
v 1.691937 -0.280748 4.096060
v 1.691937 -0.280748 4.219508
v 1.584489 -0.280748 4.219508
v 1.584489 -0.280748 4.096060
v -0.500000 -0.280748 4.219508
v -0.379822 -0.280748 4.219508
v -0.500000 -0.280748 4.096060
v -0.379822 -0.280748 4.096060
vt 0.375000 0.000000
vt 0.625000 0.000000
vt 0.375000 0.750000
vt 0.625000 0.750000
vt 0.375000 1.000000
vt 0.625000 1.000000
vt 0.875000 0.000000
vt 0.875000 0.250000
vt 0.125000 0.000000
vt 0.125000 0.250000
vt 0.750000 0.250000
vt 0.250000 0.250000
vt 0.395512 0.280027
vt 0.500000 0.280027
vt 0.604488 0.280027
vt 0.500000 0.344973
vt 0.375000 0.250000
vt 0.375000 0.375000
vt 0.500000 0.250000
vt 0.500000 0.375000
vt 0.625000 0.250000
vt 0.625000 0.375000
vt 0.395512 0.344973
vt 0.604488 0.344973
vt 0.384687 0.264501
vt 0.375000 0.250000
vt 0.374441 0.249674
vt 0.374476 0.375330
vt 0.375000 0.375000
vt 0.384742 0.360510
vt 0.500044 0.265020
vt 0.500000 0.250000
vt 0.500029 0.250000
vt 0.499971 0.375000
vt 0.500000 0.375000
vt 0.500004 0.359988
vt 0.615256 0.264490
vt 0.625000 0.250000
vt 0.625524 0.249670
vt 0.615252 0.360489
vt 0.625000 0.375000
vt 0.625559 0.375326
vt 0.447756 0.312500
vt 0.395512 0.312500
vt 0.447756 0.280027
vt 0.500000 0.312500
vt 0.447756 0.344973
vt 0.552244 0.312500
vt 0.552244 0.280027
vt 0.604488 0.312500
vt 0.552244 0.344973
vt 0.766949 0.250000
vt 0.233051 0.250000
vt 0.615939 0.394271
vt 0.615939 0.497678
vt 0.500000 0.497678
vt 0.384061 0.497678
vt 0.500000 0.394271
vt 0.625000 0.500000
vt 0.625000 0.391949
vt 0.500000 0.500000
vt 0.500000 0.391949
vt 0.375000 0.500000
vt 0.375000 0.391949
vt 0.384061 0.394271
vt 0.623733 0.392096
vt 0.622070 0.392644
vt 0.620669 0.499026
vt 0.625135 0.500133
vt 0.499984 0.498839
vt 0.500003 0.499996
vt 0.500011 0.392336
vt 0.499991 0.392720
vt 0.380751 0.498741
vt 0.377666 0.499570
vt 0.380744 0.393207
vt 0.377661 0.392379
vt 0.625000 0.875000
vt 0.750000 0.000000
vt 0.250000 0.000000
vt 0.375000 0.875000
vt 0.437500 0.812500
vt 0.187500 0.000000
vt 0.375000 0.812500
vt 0.437500 0.750000
vt 0.562500 0.812500
vt 0.562500 0.750000
vt 0.625000 0.812500
vt 0.812500 0.000000
vt 0.562500 0.937500
vt 0.625000 0.937500
vt 0.687500 0.000000
vt 0.562500 0.000000
vt 0.562500 1.000000
vt 0.437500 0.937500
vt 0.437500 0.000000
vt 0.437500 1.000000
vt 0.312500 0.000000
vt 0.375000 0.937500
vt 0.375000 0.812500
vt 0.375000 0.750000
vt 0.437500 0.750000
vt 0.437500 0.812500
vt 0.562500 0.750000
vt 0.625000 0.750000
vt 0.625000 0.812500
vt 0.562500 0.812500
vt 0.625000 0.937500
vt 0.625000 1.000000
vt 0.562500 1.000000
vt 0.562500 0.937500
vt 0.437500 1.000000
vt 0.375000 1.000000
vt 0.375000 0.937500
vt 0.437500 0.937500
vn 0.000000 0.000000 1.000000
vn 0.000000 0.000000 1.000000
vn 0.000000 0.000000 1.000000
vn 0.000000 0.000000 1.000000
vn 0.000000 0.000000 1.000000
vn 0.000000 0.000000 1.000000
vn 0.000000 0.000000 1.000000
vn 0.000000 0.000000 -1.000000
vn 0.000000 0.000000 -1.000000
vn 0.000000 0.000000 -1.000000
vn 0.000000 0.000000 -1.000000
vn 0.000000 0.000000 -1.000000
vn 0.000000 0.000000 -1.000000
vn 0.000000 0.000000 -1.000000
vn 1.000000 -0.000000 0.000000
vn 1.000000 -0.000000 0.000000
vn 1.000000 -0.000000 0.000000
vn 1.000000 -0.000000 0.000000
vn 1.000000 -0.000000 0.000000
vn 1.000000 -0.000000 0.000000
vn 1.000000 -0.000000 0.000000
vn 1.000000 -0.000000 0.000000
vn 1.000000 -0.000000 0.000000
vn -1.000000 0.000000 0.000000
vn -1.000000 0.000000 0.000000
vn -1.000000 0.000000 0.000000
vn -1.000000 -0.000000 0.000000
vn -1.000000 -0.000000 0.000000
vn -1.000000 0.000000 0.000000
vn -1.000000 0.000000 0.000000
vn -1.000000 0.000000 0.000000
vn -1.000000 0.000000 0.000000
vn 0.000000 1.000000 0.000010
vn 0.000000 1.000000 0.000010
vn 0.000000 1.000000 0.000010
vn 0.000000 1.000000 0.000010
vn 0.000000 1.000000 0.000010
vn 0.000000 1.000000 0.000010
vn 0.000000 1.000000 0.000010
vn 0.000000 1.000000 0.000010
vn -0.980790 0.195065 0.000000
vn -0.943877 0.330298 0.000000
vn -0.943877 0.330298 0.000000
vn -0.980790 0.195065 0.000000
vn -0.769670 0.638442 0.000000
vn -0.769670 0.638442 0.000000
vn -0.165489 0.935117 0.313321
vn -0.165489 0.935117 -0.313322
vn 0.003654 0.999103 0.042195
vn -0.031029 0.999519 0.000000
vn 0.003654 0.999103 -0.042195
vn 0.186042 0.981766 -0.039046
vn 0.000000 1.000000 0.000000
vn 0.000005 1.000000 -0.000000
vn 0.000001 0.995762 0.091973
vn -0.186042 0.981766 0.039046
vn -0.981310 0.192434 -0.000000
vn 0.000000 0.334624 0.942352
vn 0.000000 0.195068 0.980790
vn 0.000000 0.195068 0.980790
vn 0.000000 0.380410 0.924818
vn 0.000000 0.644921 0.764249
vn 0.000000 0.703803 0.710395
vn -0.000000 0.932017 0.362414
vn 0.186042 0.981766 0.039046
vn -0.000001 0.995762 -0.091973
vn 0.000000 0.932017 -0.362414
vn 0.000000 0.644922 -0.764249
vn 0.000000 0.703803 -0.710395
vn 0.000000 0.195065 -0.980790
vn 0.000000 0.334623 -0.942352
vn 0.000000 0.380410 -0.924818
vn 0.000000 0.195065 -0.980790
vn 0.000000 0.195068 0.980790
vn 0.000000 0.334624 0.942352
vn 0.000000 0.644921 0.764250
vn 0.165489 0.935117 0.313321
vn -0.003654 0.999103 0.042195
vn 0.943877 0.330298 0.000000
vn 0.980790 0.195067 0.000000
vn 0.980790 0.195067 0.000000
vn 0.943877 0.330298 0.000000
vn 0.769670 0.638442 0.000000
vn 0.769670 0.638442 0.000000
vn 0.165489 0.935117 -0.313322
vn -0.003654 0.999103 -0.042195
vn 0.031029 0.999519 0.000000
vn 0.000000 0.334623 -0.942352
vn 0.000000 0.195065 -0.980790
vn 0.000000 0.644921 -0.764249
vn -0.186042 0.981766 -0.039045
vn 0.000000 1.000000 0.000000
vn 0.981310 0.192434 0.000000
vn -0.000006 1.000000 0.000000
vn 0.981310 0.192434 -0.000000
vn 0.000000 1.000000 0.000000
vn 0.000000 1.000000 0.000000
vn -0.981310 0.192434 0.000000
vn 0.014651 0.999884 0.004242
vn 0.132578 0.933335 0.333629
vn 0.203072 0.977395 -0.058822
vn 0.014651 0.999884 -0.004246
vn 0.707107 0.707106 -0.000001
vn 0.905298 0.424778 -0.000001
vn 0.905298 0.424778 -0.000001
vn 0.707107 0.707106 -0.000001
vn 0.965932 0.258795 -0.000001
vn 0.965932 0.258795 -0.000001
vn -0.000000 0.999995 -0.003034
vn 0.000000 0.999995 0.003030
vn -0.014651 0.999884 -0.004246
vn -0.014651 0.999884 0.004242
vn 0.000000 0.863831 0.503782
vn 0.000000 0.258795 0.965932
vn 0.000000 0.258795 0.965932
vn 0.000000 0.258795 0.965932
vn 0.000000 0.258795 0.965932
vn 0.000000 0.707109 0.707105
vn 0.000000 0.707108 0.707105
vn 0.000000 0.423961 -0.905680
vn 0.000000 0.258794 -0.965933
vn 0.000000 0.258794 -0.965933
vn -0.000000 0.497843 -0.867267
vn -0.000000 0.965926 -0.258819
vn 0.000000 0.707105 -0.707109
vn -0.000000 0.707105 -0.707108
vn 0.000000 0.258794 -0.965933
vn -0.000000 0.423961 -0.905680
vn -0.203072 0.977396 -0.058823
vn -0.000000 0.707105 -0.707108
vn -0.905298 0.424778 -0.000001
vn -0.965932 0.258794 -0.000001
vn -0.965933 0.258794 -0.000001
vn -0.905298 0.424778 -0.000001
vn -0.132578 0.933335 0.333629
vn -0.707107 0.707107 -0.000001
vn -0.707107 0.707107 -0.000001
vn 0.000000 0.258795 0.965932
vn 0.000000 0.258795 0.965932
vn 0.000000 0.707108 0.707105
vn 0.000000 -1.000000 0.000000
vn 0.000000 -1.000000 0.000000
vn 0.000000 -1.000000 0.000000
vn 0.000000 -1.000000 0.000000
vn 0.000000 -1.000000 0.000000
vn 0.000000 -1.000000 0.000000
vn 0.000000 -1.000000 0.000000
vn 0.000000 -1.000000 0.000000
vn 0.000000 -1.000000 0.000000
vn 0.000000 -1.000000 0.000000
vn 0.000000 -1.000000 0.000000
vn 0.000000 -1.000000 0.000000
vn 0.000000 -1.000000 0.000000
vn 0.000000 -1.000000 0.000000
vn 0.000000 -1.000000 0.000000
vn 0.000000 -1.000000 0.000000
vn 0.000000 -1.000000 0.000000
vn 0.000000 -1.000000 0.000000
vn 0.000000 -1.000000 0.000000
vn 0.000000 -1.000000 0.000000
vn 0.000000 -1.000000 0.000000
vn 0.000000 -1.000000 0.000000
vn -0.000000 -1.000000 0.000000
vn -0.000000 -1.000000 0.000000
vn -0.000000 -1.000000 0.000000
vn -0.000000 -1.000000 0.000000
vn 0.000000 -1.000000 -0.000000
vn 0.000000 -1.000000 -0.000000
vn 0.000000 -1.000000 -0.000000
vn 0.000000 -1.000000 -0.000000
vn 0.000000 -1.000000 -0.000000
vn 0.000000 -1.000000 -0.000000
vn 0.000000 -1.000000 -0.000000
vn 0.000000 -1.000000 -0.000000
vn 0.000000 -1.000000 -0.000000
vn 0.000000 -1.000000 -0.000000
vn -1.000000 0.000000 0.000000
vn -1.000000 0.000000 0.000000
vn 0.000000 0.000000 -1.000000
vn 0.000000 0.000000 -1.000000
vn 1.000000 0.000000 -0.000000
vn 1.000000 0.000000 -0.000000
vn 1.000000 0.000000 -0.000000
vn 1.000000 0.000000 -0.000000
vn 0.000000 0.000000 1.000000
vn 0.000000 0.000000 1.000000
vn 0.000000 0.000000 1.000000
vn 0.000000 0.000000 1.000000
vn 0.000000 0.000000 -1.000000
vn 0.000000 0.000000 -1.000000
vn 1.000000 0.000000 0.000000
vn 1.000000 0.000000 0.000000
vn -0.000001 0.000000 1.000000
vn -0.000001 0.000000 1.000000
vn -0.000001 0.000000 1.000000
vn -0.000001 0.000000 1.000000
vn -1.000000 0.000000 0.000000
vn -1.000000 0.000000 0.000000
vn -1.000000 0.000000 0.000000
vn -1.000000 0.000000 0.000000
vn 1.000000 0.000000 0.000000
vn 1.000000 0.000000 0.000000
vn 0.000000 0.000000 1.000000
vn 0.000000 0.000000 1.000000
vn -1.000000 0.000000 0.000000
vn -1.000000 0.000000 0.000000
vn -1.000000 0.000000 0.000000
vn -1.000000 0.000000 0.000000
vn 0.000000 0.000000 -1.000000
vn 0.000000 0.000000 -1.000000
vn 0.000000 0.000000 -1.000000
vn 0.000000 0.000000 -1.000000
vn 0.000000 0.000000 1.000000
vn 0.000000 0.000000 1.000000
vn -1.000000 -0.000000 0.000000
vn -1.000000 -0.000000 0.000000
vn 0.000000 0.000000 -1.000000
vn 0.000000 0.000000 -1.000000
vn 0.000000 0.000000 -1.000000
vn 0.000000 0.000000 -1.000000
vn 1.000000 0.000000 0.000000
vn 1.000000 0.000000 0.000000
vn 1.000000 0.000000 0.000000
vn 1.000000 0.000000 0.000000
s 1
g bed
usemtl initialShadingGroup
f 1/1/1 80/96/2 78/93/3 2/2/4 4/21/5 10/19/6 3/17/7
s 2
f 5/63/8 12/61/9 6/59/10 8/4/11 74/87/12 72/85/13 7/3/14
s 3
f 2/2/15 77/92/16 68/79/17 75/89/18 8/7/19 6/8/20 47/52/21 11/11/22 4/21/23
s 4
f 7/9/24 71/83/25 69/80/26 81/98/27 1/1/28 3/17/29 13/12/30 49/53/31 5/10/32
s off
f 11/22/33 47/60/34 48/62/35 9/20/36
f 48/62/37 49/64/38 13/18/39 9/20/40
s 5
f 3/17/41 17/27/42 18/28/43 13/18/44
f 17/27/42 16/26/45 19/29/46 18/28/43
f 16/26/45 15/25/47 20/30/48 19/29/46
f 15/25/47 14/13/49 39/44/50 21/23/51 20/30/48
f 42/47/52 21/23/51 39/44/50 38/43/53
f 41/46/54 22/14/55 44/49/56 43/48/57
f 17/27/58 3/17/59 10/19/60 25/33/61
f 16/26/62 17/27/58 25/33/61 24/32/63
f 14/13/49 15/25/47 23/31/64 22/14/55 40/45/65
f 15/25/47 16/26/62 24/32/63 23/31/64
f 20/30/48 21/23/51 42/47/52 29/16/66 28/36/67
f 19/29/68 20/30/48 28/36/67 27/35/69
f 13/18/70 18/28/71 26/34/72 9/20/73
f 18/28/71 19/29/68 27/35/69 26/34/72
f 25/33/61 10/19/60 4/21/74 33/39/75
f 24/32/63 25/33/61 33/39/75 32/38/76
f 22/14/55 23/31/64 31/37/77 30/15/78 44/49/56
f 23/31/64 24/32/63 32/38/76 31/37/77
f 33/39/79 4/21/80 11/22/81 37/42/82
f 32/38/83 33/39/79 37/42/82 36/41/84
f 30/15/78 31/37/77 35/40/85 34/24/86 45/50/87
f 31/37/77 32/38/83 36/41/84 35/40/85
f 9/20/73 26/34/72 37/42/88 11/22/89
f 26/34/72 27/35/69 36/41/90 37/42/88
f 27/35/69 28/36/67 35/40/85 36/41/90
f 28/36/67 29/16/66 46/51/91 34/24/86 35/40/85
f 39/44/50 14/13/49 40/45/65 38/43/92
f 40/45/65 22/14/55 41/46/54 38/43/93
f 41/46/94 29/16/66 42/47/52 38/43/95
f 44/49/56 30/15/78 45/50/87 43/48/96
f 45/50/87 34/24/86 46/51/91 43/48/97
f 46/51/91 29/16/66 41/46/94 43/48/98
s 9
f 52/54/99 51/67/100 54/68/101 53/55/102
s 10
f 51/67/103 50/66/104 55/69/105 54/68/106
f 50/66/104 47/60/107 6/59/108 55/69/105
s 9
f 52/54/99 53/55/102 56/56/109 61/58/110
f 56/56/109 62/57/111 65/65/112 61/58/110
f 51/67/100 52/54/99 61/58/110 60/73/113
s 11
f 47/60/114 50/66/115 59/72/116 48/62/117
s 9
f 50/66/118 51/67/100 60/73/113 59/72/119
s 12
f 55/69/120 6/59/121 12/61/122 58/71/123
s 9
f 53/55/102 54/68/101 57/70/124 56/56/109
s 12
f 54/68/125 55/69/120 58/71/123 57/70/126
f 58/71/123 12/61/122 5/63/127 64/75/128
s 9
f 56/56/109 57/70/124 63/74/129 62/57/111
s 12
f 57/70/126 58/71/123 64/75/128 63/74/130
s 13
f 64/75/131 5/63/132 49/64/133 67/77/134
s 9
f 62/57/111 63/74/129 66/76/135 65/65/112
s 13
f 63/74/136 64/75/131 67/77/134 66/76/137
s 11
f 48/62/117 59/72/116 67/77/138 49/64/139
s 9
f 59/72/119 60/73/113 66/76/135 67/77/140
f 60/73/113 61/58/110 65/65/112 66/76/135
s off
f 83/100/141 82/101/142 84/102/143 85/103/144
f 70/82/145 72/85/146 74/87/147 73/86/148
f 70/82/149 73/86/150 75/88/151 68/78/152 69/81/153 71/84/154
f 86/104/155 87/105/156 88/106/157 89/107/158
f 90/108/159 91/109/160 92/110/161 93/111/162
f 76/90/163 78/94/164 80/97/165 79/95/166
f 95/112/167 94/113/168 96/114/169 97/115/170
f 79/95/171 81/99/172 69/81/173 68/78/174 77/91/175 76/90/176
s 4
f 71/84/25 7/3/24 82/101/177 83/100/178
s 2
f 7/3/14 72/85/13 84/102/179 82/101/180
s off
f 72/85/181 70/82/182 85/103/183 84/102/184
f 70/82/185 71/84/186 83/100/187 85/103/188
s 2
f 74/87/12 8/4/11 87/105/189 86/104/190
s 3
f 8/4/19 75/88/18 88/106/191 87/105/192
s off
f 75/88/193 73/86/194 89/107/195 88/106/196
f 73/86/197 74/87/198 86/104/199 89/107/200
s 3
f 77/91/16 2/6/15 91/109/201 90/108/202
s 1
f 2/6/4 78/94/3 92/110/203 91/109/204
s off
f 78/94/205 76/90/206 93/111/207 92/110/208
f 76/90/209 77/91/210 90/108/211 93/111/212
s 1
f 80/97/2 1/5/1 94/113/213 95/112/214
s 4
f 1/5/28 81/99/27 96/114/215 94/113/216
s off
f 81/99/217 79/95/218 97/115/219 96/114/220
f 79/95/221 80/97/222 95/112/223 97/115/224
