# This file uses centimeters as units for non-parametric coordinates.

mtllib chair.mtl
g default
v -0.364983 -0.340418 0.301710
v -0.360911 -0.285469 0.312704
v -0.376620 -0.285546 0.296787
v 0.376621 -0.285546 0.296787
v 0.360535 -0.285160 0.312578
v 0.364984 -0.340418 0.301710
v -0.352251 -0.220221 0.271368
v -0.336584 -0.219444 0.285882
v -0.333889 -0.207235 0.267405
v 0.333891 -0.207235 0.267405
v 0.336452 -0.219595 0.285944
v 0.352252 -0.220221 0.271368
v -0.330967 -0.200673 -0.350177
v -0.342216 -0.220040 -0.347072
v -0.352116 -0.219857 -0.324599
v -0.332361 -0.207236 -0.315561
v -0.322967 -0.195313 -0.333566
v 0.322968 -0.195313 -0.333566
v 0.333164 -0.207236 -0.316362
v 0.352050 -0.219679 -0.324683
v 0.341929 -0.220750 -0.347986
v 0.330968 -0.200673 -0.350177
v -0.326618 -0.301749 -0.402456
v -0.364092 -0.340418 -0.380470
v -0.376624 -0.285558 -0.365673
v -0.367320 -0.286188 -0.387371
v 0.367322 -0.286188 -0.387371
v 0.376691 -0.285735 -0.365923
v 0.364059 -0.340418 -0.380451
v 0.326620 -0.301749 -0.402456
v -0.280490 -0.207070 -0.390584
v -0.280169 -0.228256 -0.395481
v -0.302040 -0.227505 -0.386567
v -0.300721 -0.205343 -0.382026
v 0.300722 -0.205343 -0.382026
v 0.302263 -0.227708 -0.386540
v 0.280970 -0.227636 -0.394976
v 0.280492 -0.207070 -0.390584
v 0.280998 -0.275836 -0.434307
v 0.302965 -0.276766 -0.427505
v 0.287038 -0.296249 -0.429438
v -0.280657 -0.275343 -0.433904
v -0.287037 -0.296249 -0.429438
v -0.302963 -0.276766 -0.427505
v -0.329278 0.524537 -0.532042
v -0.322385 0.529609 -0.513515
v -0.306922 0.539469 -0.533942
v 0.306923 0.539469 -0.533942
v 0.320928 0.528834 -0.513323
v 0.329279 0.524537 -0.532042
v 0.285954 0.534419 -0.559060
v 0.300852 0.517573 -0.561336
v 0.280331 0.515756 -0.570014
v -0.285956 0.534418 -0.559066
v -0.280330 0.515756 -0.570014
v -0.300851 0.517573 -0.561336
v -0.325406 -0.340418 -0.341836
v -0.364315 -0.340418 -0.341949
v -0.325324 -0.340418 -0.380465
v 0.319866 -0.340418 -0.340966
v 0.319777 -0.340418 -0.380456
v 0.364291 -0.340418 -0.341073
v 0.322909 -0.340418 0.255135
v 0.364753 -0.340418 0.255027
v 0.323000 -0.340418 0.301710
v -0.330178 -0.340418 0.252050
v -0.330258 -0.340418 0.301710
v -0.364760 -0.340418 0.251938
v -0.364092 -0.852056 -0.380469
v -0.364315 -0.852056 -0.341948
v -0.325324 -0.852056 -0.380464
v -0.325406 -0.852056 -0.341834
v 0.364059 -0.852057 -0.380451
v 0.319777 -0.852057 -0.380456
v 0.364291 -0.852057 -0.341073
v 0.319866 -0.852057 -0.340966
v 0.364984 -0.852056 0.301710
v 0.364753 -0.852056 0.255027
v 0.323000 -0.852056 0.301710
v 0.322909 -0.852056 0.255135
v -0.364983 -0.852056 0.301710
v -0.330258 -0.852056 0.301710
v -0.364760 -0.852056 0.251939
v -0.330178 -0.852056 0.252050
vt 0.381032 0.993500
vt 0.377240 0.991771
vt 0.380248 0.016679
vt 0.380111 0.047801
vt 0.622761 0.991771
vt 0.618968 0.993500
vt 0.622784 0.759014
vt 0.631520 0.047602
vt 0.375000 0.253879
vt 0.375000 0.495878
vt 0.380012 0.218445
vt 0.619399 0.218056
vt 0.625000 0.255610
vt 0.375000 0.528099
vt 0.375000 0.500000
vt 0.125000 0.222082
vt 0.125000 0.053345
vt 0.130026 0.047572
vt 0.380414 0.493849
vt 0.619875 0.494177
vt 0.875000 0.220557
vt 0.870164 0.217839
vt 0.870023 0.047114
vt 0.875000 0.053345
vt 0.625000 0.529658
vt 0.375000 0.698539
vt 0.391799 0.750000
vt 0.618666 0.753912
vt 0.612188 0.750000
vt 0.375000 0.500000
vt 0.380127 0.500000
vt 0.380264 0.532339
vt 0.375000 0.692250
vt 0.619873 0.500000
vt 0.625000 0.525461
vt 0.625000 0.692250
vt 0.613501 0.750000
vt 0.390077 0.750000
vt 0.380055 0.691905
vt 0.375000 0.500000
vt 0.384003 0.500000
vt 0.615472 0.500000
vt 0.625000 0.500000
vt 0.625000 0.500000
vt 0.619805 0.500000
vt 0.380195 0.500000
vt 0.382486 0.500000
vt 0.619264 0.048599
vt 0.379864 0.255526
vt 0.620136 0.255526
vt 0.620078 0.530239
vt 0.620090 0.693575
vt 0.381323 0.753905
vt 0.368480 0.047602
vt 0.368937 0.216438
vt 0.129905 0.217379
vt 0.383639 0.500000
vt 0.614739 0.500000
vt 0.616104 0.500000
vt 0.625000 0.698539
vt 0.375000 0.524884
vt 0.383794 0.500000
vt 0.616206 0.500000
vt 0.625000 0.500000
vt 0.625000 0.500000
vt 0.375000 0.500000
vt 0.619207 0.016679
vt 0.631063 0.216438
vt 0.376806 0.498194
vt 0.625000 0.497595
vt 0.623083 0.500000
vt 0.377238 0.759102
vt 0.380271 0.751481
vt 0.440632 0.813844
vt 0.381250 0.813804
vt 0.440659 0.753907
vt 0.559359 0.813846
vt 0.559330 0.753910
vt 0.618742 0.813809
vt 0.559454 0.933641
vt 0.618892 0.933603
vt 0.559467 0.016679
vt 0.559484 0.993500
vt 0.440542 0.933640
vt 0.439988 0.016679
vt 0.440516 0.993500
vt 0.381105 0.933601
vt 0.381250 0.813804
vt 0.381323 0.753905
vt 0.440659 0.753907
vt 0.440632 0.813844
vt 0.559330 0.753910
vt 0.618666 0.753912
vt 0.618742 0.813809
vt 0.559359 0.813846
vt 0.618892 0.933603
vt 0.618968 0.993500
vt 0.559484 0.993500
vt 0.559454 0.933641
vt 0.440516 0.993500
vt 0.381032 0.993500
vt 0.381105 0.933601
vt 0.440542 0.933640
vn -0.992008 -0.126154 -0.002252
vn -0.976628 -0.214938 -0.000642
vn -0.976627 -0.214938 -0.000642
vn -0.991107 -0.133043 -0.002631
vn -0.985258 -0.171064 -0.001713
vn -0.986885 -0.161415 -0.001617
vn 0.000126 -0.194584 0.980886
vn 0.000087 -0.134112 0.990966
vn 0.000104 -0.160220 0.987081
vn 0.000100 -0.154497 0.987993
vn 0.000081 -0.125707 0.992067
vn 0.000126 -0.194584 0.980886
vn -0.618367 0.477501 0.624192
vn -0.618367 0.477501 0.624192
vn -0.070083 0.816093 0.573656
vn -0.580523 0.810102 0.082024
vn 0.976357 -0.216162 -0.000590
vn 0.991488 -0.130179 -0.002354
vn 0.986318 -0.164848 -0.001647
vn 0.985231 -0.171223 -0.001711
vn 0.991144 -0.132766 -0.002661
vn 0.976357 -0.216162 -0.000590
vn 0.613909 0.477292 0.628735
vn 0.613909 0.477292 0.628735
vn 0.585859 0.805999 0.084463
vn 0.069872 0.815781 0.574125
vn -0.294308 0.903848 0.310552
vn -0.567019 0.823703 -0.001733
vn -0.898980 0.437926 -0.007494
vn 0.295775 0.902447 0.313219
vn 0.899663 0.436517 -0.007704
vn 0.573919 0.818907 -0.002814
vn -0.926333 0.092560 0.365158
vn -0.926333 0.092560 0.365158
vn -0.926333 0.092560 0.365158
vn -0.926333 0.092560 0.365158
vn -0.653253 0.558010 -0.511747
vn -0.727194 -0.149228 -0.670015
vn -0.630299 -0.173835 -0.756640
vn -0.490297 0.528140 -0.693309
vn -0.582552 0.564756 -0.584538
vn -0.931310 0.363334 -0.025506
vn 0.000343 0.827987 0.560747
vn 0.000343 0.827987 0.560747
vn 0.000343 0.827987 0.560747
vn 0.000343 0.827987 0.560747
vn 0.913111 0.100911 0.395026
vn 0.913111 0.100911 0.395026
vn 0.913111 0.100911 0.395026
vn 0.913111 0.100911 0.395026
vn 0.650952 0.554434 -0.518521
vn 0.931159 0.363688 -0.025953
vn 0.583012 0.565045 -0.583799
vn 0.727149 -0.149157 -0.670080
vn 0.490703 0.528235 -0.692949
vn 0.630297 -0.173663 -0.756682
vn -0.521686 -0.289890 -0.802376
vn -0.595475 -0.171382 -0.784881
vn -0.454749 -0.348317 -0.819682
vn -0.045644 -0.234261 -0.971102
vn 0.000076 -0.236238 -0.971695
vn 0.000011 -0.579310 -0.815108
vn 0.000011 -0.579327 -0.815095
vn 0.000071 -0.219399 -0.975635
vn 0.000006 -0.989528 -0.144343
vn 0.000006 -0.990277 -0.139107
vn 0.592699 -0.172043 -0.786835
vn 0.520471 -0.290183 -0.803059
vn 0.044742 -0.234473 -0.971092
vn 0.456447 -0.350007 -0.818017
vn -0.015359 -0.228775 -0.973358
vn -0.624747 -0.188086 -0.757836
vn -0.014985 -0.240891 -0.970437
vn -0.012734 0.537000 -0.843486
vn 0.015346 -0.228526 -0.973417
vn 0.013191 0.537957 -0.842869
vn -0.009908 0.632404 -0.774576
vn -0.440862 0.586757 -0.679233
vn 0.014985 -0.240891 -0.970437
vn 0.624748 -0.188086 -0.757835
vn 0.441502 0.586246 -0.679258
vn 0.009851 0.632387 -0.774590
vn 0.003123 -0.219522 -0.975603
vn -0.003738 -0.219285 -0.975654
vn -0.514747 0.610442 -0.601993
vn -0.514747 0.610442 -0.601993
vn -0.037727 0.517149 -0.855063
vn -0.494368 0.588474 -0.639764
vn 0.000483 0.894670 0.446727
vn 0.000483 0.894670 0.446727
vn 0.000483 0.894670 0.446727
vn 0.000483 0.894670 0.446727
vn 0.514673 0.610491 -0.602008
vn 0.514673 0.610491 -0.602008
vn 0.494284 0.588538 -0.639771
vn 0.037727 0.517154 -0.855061
vn 0.003338 0.505330 -0.862920
vn -0.003330 0.505328 -0.862921
vn -0.000000 0.376360 0.926473
vn -0.000000 0.376360 0.926473
vn -0.000000 0.376360 0.926473
vn -0.000000 0.376360 0.926473
vn -0.000000 1.000000 -0.000000
vn -0.000000 1.000000 -0.000000
vn -0.000000 1.000000 -0.000000
vn -0.000000 1.000000 -0.000000
vn 0.936934 0.349506 0.000000
vn 0.936934 0.349506 0.000000
vn -0.936934 0.349505 0.000000
vn -0.936934 0.349505 0.000000
vn -0.000000 0.980384 -0.197097
vn -0.000000 0.980384 -0.197097
vn -0.000000 0.980384 -0.197097
vn -0.000000 0.980384 -0.197097
vn 0.000000 -0.979849 -0.199738
vn 0.000000 -0.979849 -0.199738
vn 0.000000 0.240921 0.970545
vn 0.000000 0.240921 0.970545
vn 0.000000 0.240921 0.970545
vn 0.000000 0.240921 0.970545
vn 0.727128 -0.165393 -0.666281
vn -0.727125 -0.165394 -0.666283
vn -0.708783 -0.087514 0.699978
vn -0.708783 -0.087514 0.699978
vn -0.708783 -0.087514 0.699978
vn 0.697040 -0.083938 0.712102
vn 0.697040 -0.083938 0.712102
vn 0.697040 -0.083938 0.712102
vn -0.709259 0.704628 -0.021224
vn -0.709259 0.704628 -0.021224
vn 0.717532 0.695067 -0.045048
vn 0.717532 0.695067 -0.045048
vn -0.615168 -0.135447 -0.776674
vn -0.615168 -0.135447 -0.776674
vn 0.611978 -0.136228 -0.779054
vn 0.611978 -0.136228 -0.779054
vn -0.556497 0.830601 -0.020340
vn -0.556497 0.830601 -0.020340
vn -0.556497 0.830601 -0.020340
vn 0.551350 0.832467 0.054885
vn 0.551350 0.832467 0.054885
vn 0.551350 0.832467 0.054885
vn 0.000000 -1.000000 0.000000
vn 0.000000 -1.000000 0.000000
vn 0.000000 -1.000000 0.000000
vn 0.000000 -1.000000 0.000000
vn 0.000000 -1.000000 -0.000001
vn 0.000000 -1.000000 -0.000001
vn 0.000000 -1.000000 -0.000001
vn 0.000000 -1.000000 -0.000001
vn 0.000000 -1.000000 -0.000001
vn 0.000000 -1.000000 -0.000001
vn 0.000000 -1.000000 -0.000001
vn 0.000000 -1.000000 -0.000001
vn 0.000000 -1.000000 -0.000001
vn 0.000000 -1.000000 -0.000001
vn 0.000000 -1.000000 -0.000001
vn 0.000000 -1.000000 -0.000001
vn 0.000000 -1.000000 0.000000
vn 0.000000 -1.000000 0.000000
vn 0.000000 -1.000000 0.000000
vn 0.000000 -1.000000 0.000000
vn 0.000000 -1.000000 0.000000
vn 0.000000 -1.000000 0.000000
vn 0.000000 -1.000000 0.000000
vn 0.000000 -1.000000 0.000000
vn 0.000000 -1.000000 0.000000
vn 0.000000 -1.000000 0.000000
vn -0.999983 -0.000000 -0.005778
vn -0.999983 -0.000000 -0.005778
vn 0.000126 -0.000002 -1.000000
vn 0.000126 -0.000002 -1.000000
vn 0.999998 -0.000000 0.002127
vn 0.999998 -0.000000 0.002127
vn 0.999998 -0.000000 0.002127
vn 0.999998 -0.000000 0.002127
vn -0.002907 0.000002 0.999996
vn -0.002907 0.000002 0.999996
vn -0.002907 0.000002 0.999996
vn -0.002907 0.000002 0.999996
vn 0.000111 0.000001 -1.000000
vn 0.000111 0.000001 -1.000000
vn 0.999983 0.000000 -0.005872
vn 0.999983 0.000000 -0.005872
vn 0.002397 -0.000000 0.999997
vn 0.002397 -0.000000 0.999997
vn 0.002397 -0.000000 0.999997
vn 0.002397 -0.000000 0.999997
vn -0.999998 0.000000 0.002236
vn -0.999997 0.000000 0.002236
vn -0.999998 0.000000 0.002236
vn -0.999997 0.000000 0.002236
vn 0.999988 0.000000 -0.004953
vn 0.999988 0.000000 -0.004953
vn 0.000000 0.000000 1.000000
vn 0.000000 0.000000 1.000000
vn -0.999998 0.000000 0.001946
vn -0.999998 0.000000 0.001946
vn -0.999998 0.000000 0.001946
vn -0.999998 0.000000 0.001946
vn -0.002587 0.000000 -0.999997
vn -0.002587 0.000000 -0.999997
vn -0.002587 0.000000 -0.999997
vn -0.002587 0.000000 -0.999997
vn 0.000000 0.000001 1.000000
vn 0.000000 0.000001 1.000000
vn -0.999990 -0.000000 -0.004478
vn -0.999990 -0.000000 -0.004478
vn 0.003216 -0.000001 -0.999995
vn 0.003216 -0.000001 -0.999995
vn 0.003216 -0.000001 -0.999995
vn 0.003216 -0.000001 -0.999995
vn 0.999999 0.000000 0.001604
vn 0.999999 0.000000 0.001604
vn 0.999999 0.000000 0.001604
vn 0.999999 0.000000 0.001604
s 1
g chairs
usemtl initialShadingGroup
f 1/1/1 3/2/2 25/72/3 24/53/4 58/75/5 68/87/6
s 2
f 2/4/7 1/3/8 67/85/9 65/82/10 6/67/11 5/48/12
s 3
f 3/54/13 2/4/14 8/11/15 7/55/16
s 4
f 4/5/17 6/6/18 64/81/19 62/79/20 29/28/21 28/7/22
s 3
f 5/48/23 4/8/24 12/68/25 11/12/26
f 7/9/16 9/49/27 16/19/28 15/10/29
f 9/49/27 8/11/15 11/12/26 10/50/30
f 10/50/30 12/13/25 20/70/31 19/20/32
s off
f 13/15/33 17/62/34 46/41/35 45/66/36
s 3
f 14/14/37 13/15/38 34/30/39 33/61/40
f 15/56/29 14/16/37 26/17/41 25/18/42
s off
f 17/62/43 16/19/44 19/20/45 18/63/46
f 18/63/47 22/64/48 50/43/49 49/42/50
s 3
f 21/21/51 20/22/31 28/23/52 27/24/53
f 22/64/54 21/25/51 36/35/55 35/65/56
s 7
f 23/27/57 26/26/58 44/33/59 43/38/60
s 8
f 24/53/61 23/27/62 30/29/63 29/28/64 61/78/65 59/76/66
s 7
f 27/60/67 30/29/68 41/37/69 40/36/70
s 3
f 31/31/71 34/30/39 56/40/72 55/46/73
f 32/32/74 31/31/71 38/34/75 37/51/76
f 33/61/40 32/32/74 42/39/77 44/33/78
f 35/65/56 38/34/75 53/45/79 52/44/80
f 37/51/76 36/35/55 40/36/81 39/52/82
s 7
f 39/52/83 41/37/69 43/38/60 42/39/84
s 10
f 45/66/85 47/57/86 54/47/87 56/40/88
s off
f 47/57/89 46/41/90 49/42/91 48/58/92
s 10
f 48/58/93 50/43/94 52/44/95 51/59/96
f 51/59/96 53/45/97 55/46/98 54/47/87
s off
f 2/4/99 5/48/100 11/12/101 8/11/102
f 9/49/103 10/50/104 19/20/105 16/19/106
s 3
f 32/32/74 37/51/76 39/52/82 42/39/77
f 4/8/107 28/23/52 20/22/31 12/68/108
f 25/18/42 3/54/109 7/55/110 15/56/29
s off
f 47/57/111 48/58/112 51/59/113 54/47/114
s 3
f 21/25/51 27/60/53 40/36/81 36/35/55
s 8
f 30/29/63 23/27/62 43/38/115 41/37/116
s 3
f 26/26/41 14/14/37 33/61/40 44/33/78
s off
f 17/62/117 18/63/118 49/42/119 46/41/120
s 3
f 22/64/54 35/65/56 52/44/80 50/43/121
f 38/34/75 31/31/71 55/46/73 53/45/79
f 34/30/39 13/15/38 45/66/122 56/40/72
s off
f 1/3/123 2/4/124 3/54/125
f 4/8/126 5/48/127 6/67/128
s 3
f 7/55/16 8/11/15 9/49/27
f 10/50/30 11/12/26 12/68/25
f 13/15/129 14/69/37 15/10/29 16/19/28 17/62/130
f 18/63/131 19/20/32 20/70/31 21/71/51 22/64/132
s 7
f 23/27/57 24/53/133 25/72/134 26/73/58
f 27/60/67 28/7/135 29/28/136 30/29/68
s 3
f 31/31/71 32/32/74 33/61/40 34/30/39
f 35/65/56 36/35/55 37/51/76 38/34/75
s 7
f 39/52/83 40/36/70 41/37/69
f 42/39/84 43/38/60 44/33/59
s off
f 45/66/137 46/41/138 47/57/139
f 48/58/140 49/42/141 50/43/142
s 10
f 51/59/96 52/44/95 53/45/97
f 54/47/87 55/46/98 56/40/88
s off
f 70/88/143 69/89/144 71/90/145 72/91/146
f 74/92/147 73/93/148 75/94/149 76/95/150
f 78/96/151 77/97/152 79/98/153 80/99/154
f 82/100/155 81/101/156 83/102/157 84/103/158
s 8
f 66/84/159 68/87/160 58/75/161 57/74/162 59/76/66 61/78/65 60/77/163 62/79/164 64/81/165 63/80/166 65/83/167 67/86/168
s 1
f 58/75/5 24/53/4 69/89/169 70/88/170
s 8
f 24/53/61 59/76/66 71/90/171 69/89/172
s off
f 59/76/173 57/74/174 72/91/175 71/90/176
f 57/74/177 58/75/178 70/88/179 72/91/180
s 8
f 61/78/65 29/28/64 73/93/181 74/92/182
s 4
f 29/28/21 62/79/20 75/94/183 73/93/184
s off
f 62/79/185 60/77/186 76/95/187 75/94/188
f 60/77/189 61/78/190 74/92/191 76/95/192
s 4
f 64/81/19 6/6/18 77/97/193 78/96/194
s 2
f 6/6/11 65/83/10 79/98/195 77/97/196
s off
f 65/83/197 63/80/198 80/99/199 79/98/200
f 63/80/201 64/81/202 78/96/203 80/99/204
s 2
f 67/86/9 1/1/8 81/101/205 82/100/206
s 1
f 1/1/1 68/87/6 83/102/207 81/101/208
s off
f 68/87/209 66/84/210 84/103/211 83/102/212
f 66/84/213 67/86/214 82/100/215 84/103/216
