# This file uses centimeters as units for non-parametric coordinates.

mtllib door.mtl
g default
v -1.452138 -3.290695 0.550011
v 1.452138 -3.290695 0.550011
v -1.452138 3.568252 0.550011
v 1.452138 3.568252 0.550011
v -1.452138 3.568252 -0.550010
v 1.452138 3.568252 -0.550010
v -1.452138 -3.290695 -0.550010
v 1.452138 -3.290695 -0.550010
v -1.301542 3.212595 -0.311017
v 1.301542 3.212595 -0.311017
v 1.301542 -2.935038 -0.311017
v -1.301542 -2.935038 -0.311017
vt 0.375000 0.000000
vt 0.625000 0.000000
vt 0.375000 0.250000
vt 0.625000 0.250000
vt 0.375000 0.500000
vt 0.625000 0.500000
vt 0.375000 0.750000
vt 0.625000 0.750000
vt 0.375000 1.000000
vt 0.625000 1.000000
vt 0.875000 0.000000
vt 0.875000 0.250000
vt 0.125000 0.000000
vt 0.125000 0.250000
vt 0.375000 0.500000
vt 0.625000 0.500000
vt 0.625000 0.750000
vt 0.375000 0.750000
vn 0.000000 0.000000 1.000000
vn 0.000000 0.000000 1.000000
vn 0.000000 0.000000 1.000000
vn 0.000000 0.000000 1.000000
vn 0.000000 1.000000 0.000000
vn 0.000000 1.000000 0.000000
vn 0.000000 1.000000 0.000000
vn 0.000000 1.000000 0.000000
vn 0.000000 0.000000 -1.000000
vn 0.000000 0.000000 -1.000000
vn 0.000000 0.000000 -1.000000
vn 0.000000 0.000000 -1.000000
vn 0.000000 -1.000000 0.000000
vn 0.000000 -1.000000 0.000000
vn 0.000000 -1.000000 0.000000
vn 0.000000 -1.000000 0.000000
vn 1.000000 0.000000 0.000000
vn 1.000000 0.000000 0.000000
vn 1.000000 0.000000 0.000000
vn 1.000000 0.000000 0.000000
vn -1.000000 0.000000 0.000000
vn -1.000000 0.000000 0.000000
vn -1.000000 0.000000 0.000000
vn -1.000000 0.000000 0.000000
vn 0.000000 -0.557747 -0.830011
vn 0.000000 -0.557747 -0.830011
vn 0.000000 -0.557747 -0.830011
vn 0.000000 -0.557747 -0.830011
vn -0.846044 0.000000 -0.533113
vn -0.846044 0.000000 -0.533113
vn -0.846044 0.000000 -0.533113
vn -0.846044 0.000000 -0.533113
vn 0.000000 0.557747 -0.830011
vn 0.000000 0.557747 -0.830011
vn 0.000000 0.557748 -0.830011
vn 0.000000 0.557748 -0.830011
vn 0.846044 0.000000 -0.533113
vn 0.846044 0.000000 -0.533113
vn 0.846044 0.000000 -0.533113
vn 0.846044 0.000000 -0.533113
s off
g door
usemtl initialShadingGroup
f 1/1/1 2/2/2 4/4/3 3/3/4
f 3/3/5 4/4/6 6/6/7 5/5/8
f 9/15/9 10/16/10 11/17/11 12/18/12
f 7/7/13 8/8/14 2/10/15 1/9/16
f 2/2/17 8/11/18 6/12/19 4/4/20
f 7/13/21 1/1/22 3/3/23 5/14/24
f 5/5/25 6/6/26 10/16/27 9/15/28
f 6/6/29 8/8/30 11/17/31 10/16/32
f 8/8/33 7/7/34 12/18/35 11/17/36
f 7/7/37 5/5/38 9/15/39 12/18/40
