# This file uses centimeters as units for non-parametric coordinates.

mtllib table.mtl
g default
v -0.864905 0.409113 0.867799
v -0.831755 0.320995 0.867799
v -0.831755 0.409113 0.900949
v -0.831755 0.442263 0.914680
v -0.864905 0.442263 0.900949
v -0.878635 0.442263 0.867799
v 0.864904 0.409113 0.867799
v 0.878635 0.442263 0.867799
v 0.864904 0.442263 0.900949
v 0.831756 0.442263 0.914680
v 0.831756 0.409113 0.900949
v 0.831756 0.320995 0.867799
v -0.864905 0.569191 0.867799
v -0.878635 0.536042 0.867799
v -0.864905 0.536042 0.900949
v -0.831755 0.536042 0.914680
v -0.831755 0.569191 0.900949
v -0.831755 0.582922 0.867799
v 0.864904 0.569191 0.867799
v 0.831756 0.582922 0.867799
v 0.831756 0.569191 0.900949
v 0.831756 0.536042 0.914680
v 0.864904 0.536042 0.900949
v 0.878635 0.536042 0.867799
v -0.864905 0.536042 -0.900949
v -0.878635 0.536042 -0.867799
v -0.864905 0.569191 -0.867799
v -0.831755 0.582922 -0.867799
v -0.831755 0.569191 -0.900949
v -0.831755 0.536042 -0.914680
v 0.864904 0.536042 -0.900949
v 0.831756 0.536042 -0.914680
v 0.831756 0.569191 -0.900949
v 0.831756 0.582922 -0.867799
v 0.864904 0.569191 -0.867799
v 0.878635 0.536042 -0.867799
v -0.864905 0.409113 -0.867799
v -0.878635 0.442263 -0.867799
v -0.864905 0.442263 -0.900949
v -0.831755 0.442263 -0.914680
v -0.831755 0.409113 -0.900949
v -0.831755 0.320995 -0.867799
v 0.864904 0.409113 -0.867799
v 0.831756 0.320995 -0.867799
v 0.831756 0.409113 -0.900949
v 0.831756 0.442263 -0.914680
v 0.864904 0.442263 -0.900949
v 0.878635 0.442263 -0.867799
v -0.858812 0.415206 0.894856
v 0.858812 0.415206 0.894856
v -0.858812 0.563099 0.894856
v 0.858812 0.563099 0.894856
v -0.858812 0.563099 -0.894855
v 0.858812 0.563099 -0.894855
v -0.858812 0.415206 -0.894855
v 0.858812 0.415206 -0.894855
v 0.781182 0.320995 -0.815035
v -0.781184 0.320995 -0.815035
v 0.781182 0.320995 0.815035
v -0.781184 0.320995 0.815035
v 0.666379 -0.576128 0.815035
v 0.781182 -0.576128 0.815035
v 0.666379 0.320995 0.815035
v 0.781182 0.320995 0.815035
v 0.669941 0.314201 0.716347
v 0.784745 0.314201 0.716347
v 0.669941 -0.582922 0.716347
v 0.784745 -0.582922 0.716347
v -0.784745 -0.576128 -0.716348
v -0.669941 -0.576128 -0.716348
v -0.784745 0.320995 -0.716348
v -0.669941 0.320995 -0.716348
v -0.781184 0.314201 -0.815035
v -0.666380 0.314201 -0.815035
v -0.781184 -0.582922 -0.815035
v -0.666380 -0.582922 -0.815035
v 0.666379 -0.576128 -0.716348
v 0.781182 -0.576128 -0.716348
v 0.666379 0.320995 -0.716348
v 0.781182 0.320995 -0.716348
v 0.669941 0.314201 -0.815035
v 0.784745 0.314201 -0.815035
v 0.669941 -0.582922 -0.815035
v 0.784745 -0.582922 -0.815035
v -0.781184 -0.576128 0.815035
v -0.666380 -0.576128 0.815035
v -0.781184 0.320995 0.815035
v -0.666380 0.320995 0.815035
v -0.777623 0.314201 0.716347
v -0.662819 0.314201 0.716347
v -0.777623 -0.582922 0.716347
v -0.662819 -0.582922 0.716347
vt 0.381669 0.993593
vt 0.381669 0.062494
vt 0.618331 0.993593
vt 0.631407 0.062494
vt 0.381669 0.187506
vt 0.618331 0.187506
vt 0.631407 0.187506
vt 0.131407 0.062494
vt 0.381669 0.493593
vt 0.618331 0.493593
vt 0.868593 0.187506
vt 0.868593 0.062494
vt 0.618330 0.756407
vt 0.381669 0.687506
vt 0.618331 0.687506
vt 0.618331 0.062494
vt 0.381669 0.256407
vt 0.618330 0.256407
vt 0.381669 0.562494
vt 0.618331 0.562494
vt 0.381669 0.756407
vt 0.368593 0.062494
vt 0.368593 0.187506
vt 0.131407 0.187506
vt 0.375000 0.996039
vt 0.371039 -0.000000
vt 0.379127 -0.000000
vt 0.379127 1.000000
vt 0.375097 0.057820
vt 0.628961 -0.000000
vt 0.625000 0.996039
vt 0.624903 0.057820
vt 0.620873 1.000000
vt 0.620873 -0.000000
vt 0.371039 0.250000
vt 0.375000 0.253961
vt 0.375097 0.192180
vt 0.381616 0.222629
vt 0.625000 0.253961
vt 0.628961 0.250000
vt 0.618384 0.222629
vt 0.624903 0.192180
vt 0.125000 0.202853
vt 0.375000 0.547147
vt 0.375000 0.496039
vt 0.128961 0.250000
vt 0.381616 0.527371
vt 0.625000 0.547147
vt 0.875000 0.202853
vt 0.618384 0.527371
vt 0.871039 0.250000
vt 0.625000 0.496039
vt 0.128961 -0.000000
vt 0.375000 0.753961
vt 0.375000 0.702853
vt 0.125000 0.047147
vt 0.381616 0.722628
vt 0.625000 0.753961
vt 0.871039 -0.000000
vt 0.618384 0.722629
vt 0.875000 0.047147
vt 0.625000 0.702853
vt 0.375000 1.000000
vt 0.375000 0.000000
vt 0.625000 0.000000
vt 0.625000 1.000000
vt 0.375000 0.250000
vt 0.625000 0.250000
vt 0.125000 0.250000
vt 0.375000 0.500000
vt 0.625000 0.500000
vt 0.875000 0.250000
vt 0.125000 0.000000
vt 0.375000 0.750000
vt 0.625000 0.750000
vt 0.875000 0.000000
vt 0.381669 0.756407
vt 0.618330 0.756407
vt 0.618331 0.993593
vt 0.381669 0.993593
vt 0.375000 0.000000
vt 0.625000 0.000000
vt 0.375000 0.250000
vt 0.625000 0.250000
vt 0.375000 0.500000
vt 0.625000 0.500000
vt 0.375000 0.750000
vt 0.625000 0.750000
vt 0.375000 1.000000
vt 0.625000 1.000000
vt 0.875000 0.000000
vt 0.875000 0.250000
vt 0.125000 0.000000
vt 0.125000 0.250000
vt 0.375000 0.000000
vt 0.625000 0.000000
vt 0.375000 0.250000
vt 0.625000 0.250000
vt 0.375000 0.500000
vt 0.625000 0.500000
vt 0.375000 0.750000
vt 0.625000 0.750000
vt 0.375000 1.000000
vt 0.625000 1.000000
vt 0.875000 0.000000
vt 0.875000 0.250000
vt 0.125000 0.000000
vt 0.125000 0.250000
vt 0.375000 0.000000
vt 0.625000 0.000000
vt 0.375000 0.250000
vt 0.625000 0.250000
vt 0.375000 0.500000
vt 0.625000 0.500000
vt 0.375000 0.750000
vt 0.625000 0.750000
vt 0.375000 1.000000
vt 0.625000 1.000000
vt 0.875000 0.000000
vt 0.875000 0.250000
vt 0.125000 0.000000
vt 0.125000 0.250000
vt 0.375000 0.000000
vt 0.625000 0.000000
vt 0.375000 0.250000
vt 0.625000 0.250000
vt 0.375000 0.500000
vt 0.625000 0.500000
vt 0.375000 0.750000
vt 0.625000 0.750000
vt 0.375000 1.000000
vt 0.625000 1.000000
vt 0.875000 0.000000
vt 0.875000 0.250000
vt 0.125000 0.000000
vt 0.125000 0.250000
vn -0.637454 -0.469310 0.611064
vn -0.935246 -0.353852 0.010200
vn -0.935246 -0.353852 -0.010200
vn -0.637454 -0.469310 -0.611064
vn -0.924091 -0.382143 0.004817
vn -0.994235 -0.106994 0.007030
vn -0.994235 -0.106994 -0.007030
vn -0.924091 -0.382143 -0.004817
vn -0.007330 -0.106970 0.994235
vn -0.005022 -0.382118 0.924100
vn 0.005022 -0.382118 0.924100
vn 0.007330 -0.106970 0.994235
vn -0.010637 -0.353926 0.935213
vn -0.637454 -0.469310 0.611064
vn 0.637454 -0.469311 0.611064
vn 0.010637 -0.353926 0.935213
vn -0.994235 -0.106994 0.007030
vn -0.924787 -0.071422 0.373722
vn -0.924787 0.071422 0.373722
vn -0.994235 0.106994 0.007030
vn -0.373724 -0.071421 0.924786
vn -0.007330 -0.106970 0.994235
vn -0.007330 0.106970 0.994235
vn -0.373723 0.071421 0.924787
vn 0.994235 -0.106994 0.007030
vn 0.924091 -0.382142 0.004817
vn 0.924091 -0.382142 -0.004817
vn 0.994235 -0.106994 -0.007030
vn 0.935246 -0.353852 0.010200
vn 0.637454 -0.469311 0.611064
vn 0.637454 -0.469311 -0.611064
vn 0.935246 -0.353852 -0.010200
vn 0.007330 -0.106970 0.994235
vn 0.373723 -0.071421 0.924787
vn 0.373723 0.071421 0.924787
vn 0.007330 0.106970 0.994235
vn 0.924787 -0.071421 0.373723
vn 0.994235 -0.106994 0.007030
vn 0.994235 0.106994 0.007030
vn 0.924787 0.071421 0.373723
vn -0.994235 0.106994 0.007030
vn -0.924091 0.382143 0.004817
vn -0.924091 0.382143 -0.004817
vn -0.994235 0.106994 -0.007030
vn -0.382143 0.924091 0.004817
vn -0.008041 0.999938 0.007711
vn -0.008041 0.999938 -0.007711
vn -0.382143 0.924091 -0.004817
vn -0.008041 0.999938 0.007711
vn -0.005022 0.924100 0.382119
vn 0.005022 0.924100 0.382119
vn 0.008041 0.999938 0.007711
vn -0.005022 0.382118 0.924100
vn -0.007330 0.106970 0.994235
vn 0.007330 0.106970 0.994235
vn 0.005022 0.382118 0.924100
vn 0.008041 0.999938 0.007711
vn 0.382142 0.924091 0.004817
vn 0.382142 0.924091 -0.004817
vn 0.008041 0.999938 -0.007711
vn 0.924091 0.382142 0.004817
vn 0.994235 0.106994 0.007030
vn 0.994235 0.106994 -0.007030
vn 0.924091 0.382142 -0.004817
vn -0.994235 0.106994 -0.007030
vn -0.924787 0.071422 -0.373722
vn -0.924787 -0.071422 -0.373722
vn -0.994235 -0.106994 -0.007030
vn -0.373723 0.071421 -0.924787
vn -0.007330 0.106970 -0.994235
vn -0.007330 -0.106970 -0.994235
vn -0.373722 -0.071421 -0.924787
vn -0.007330 0.106970 -0.994235
vn -0.005022 0.382116 -0.924101
vn 0.005022 0.382116 -0.924101
vn 0.007330 0.106970 -0.994235
vn -0.005022 0.924100 -0.382119
vn -0.008041 0.999938 -0.007711
vn 0.008041 0.999938 -0.007711
vn 0.005022 0.924100 -0.382118
vn 0.007330 0.106970 -0.994235
vn 0.373722 0.071421 -0.924787
vn 0.373722 -0.071421 -0.924787
vn 0.007330 -0.106970 -0.994235
vn 0.924787 0.071421 -0.373723
vn 0.994235 0.106994 -0.007030
vn 0.994235 -0.106994 -0.007030
vn 0.924787 -0.071421 -0.373723
vn -0.637454 -0.469310 -0.611064
vn -0.010637 -0.353926 -0.935213
vn 0.010637 -0.353926 -0.935213
vn 0.637454 -0.469311 -0.611064
vn -0.005022 -0.382116 -0.924101
vn -0.007330 -0.106970 -0.994235
vn 0.007330 -0.106970 -0.994235
vn 0.005022 -0.382116 -0.924101
vn -0.007330 -0.106970 0.994235
vn 0.007330 -0.106970 0.994235
vn 0.007330 0.106970 0.994235
vn -0.007330 0.106970 0.994235
vn -0.008041 0.999938 0.007711
vn 0.008041 0.999938 0.007711
vn 0.008041 0.999938 -0.007711
vn -0.008041 0.999938 -0.007711
vn -0.007330 0.106970 -0.994235
vn 0.007330 0.106970 -0.994235
vn 0.007330 -0.106970 -0.994235
vn -0.007330 -0.106970 -0.994235
vn 0.000000 -1.000000 0.000000
vn 0.000000 -1.000000 0.000000
vn 0.000000 -1.000000 0.000000
vn 0.000000 -1.000000 0.000000
vn 0.994235 -0.106994 0.007030
vn 0.994235 -0.106994 -0.007030
vn 0.994235 0.106994 -0.007030
vn 0.994235 0.106994 0.007030
vn -0.994235 -0.106994 -0.007030
vn -0.994235 -0.106994 0.007030
vn -0.994235 0.106994 0.007030
vn -0.994235 0.106994 -0.007030
vn -0.924787 -0.071422 0.373722
vn -0.994235 -0.106994 0.007030
vn -0.924091 -0.382143 0.004817
vn -0.887918 -0.325271 0.325270
vn -0.935246 -0.353852 0.010200
vn -0.637454 -0.469310 0.611064
vn -0.010637 -0.353926 0.935213
vn -0.655133 -0.376300 0.655133
vn -0.005022 -0.382118 0.924100
vn -0.007330 -0.106970 0.994235
vn -0.373724 -0.071421 0.924786
vn -0.325270 -0.325268 0.887919
vn 0.010637 -0.353926 0.935213
vn 0.637454 -0.469311 0.611064
vn 0.935246 -0.353852 0.010200
vn 0.655133 -0.376301 0.655133
vn 0.924091 -0.382142 0.004817
vn 0.994235 -0.106994 0.007030
vn 0.924787 -0.071421 0.373723
vn 0.887919 -0.325270 0.325269
vn 0.373723 -0.071421 0.924787
vn 0.007330 -0.106970 0.994235
vn 0.005022 -0.382118 0.924100
vn 0.325269 -0.325269 0.887919
vn -0.005022 0.924100 0.382119
vn -0.008041 0.999938 0.007711
vn -0.382143 0.924091 0.004817
vn -0.325270 0.887918 0.325270
vn -0.924091 0.382143 0.004817
vn -0.994235 0.106994 0.007030
vn -0.924787 0.071422 0.373722
vn -0.887918 0.325271 0.325270
vn -0.373723 0.071421 0.924787
vn -0.007330 0.106970 0.994235
vn -0.005022 0.382118 0.924100
vn -0.325270 0.325268 0.887919
vn 0.924787 0.071421 0.373723
vn 0.994235 0.106994 0.007030
vn 0.924091 0.382142 0.004817
vn 0.887919 0.325270 0.325269
vn 0.382142 0.924091 0.004817
vn 0.008041 0.999938 0.007711
vn 0.005022 0.924100 0.382119
vn 0.325269 0.887919 0.325269
vn 0.005022 0.382118 0.924100
vn 0.007330 0.106970 0.994235
vn 0.373723 0.071421 0.924787
vn 0.325270 0.325269 0.887919
vn -0.005022 0.382116 -0.924101
vn -0.007330 0.106970 -0.994235
vn -0.373723 0.071421 -0.924787
vn -0.325266 0.325269 -0.887920
vn -0.924787 0.071422 -0.373722
vn -0.994235 0.106994 -0.007030
vn -0.924091 0.382143 -0.004817
vn -0.887918 0.325273 -0.325269
vn -0.382143 0.924091 -0.004817
vn -0.008041 0.999938 -0.007711
vn -0.005022 0.924100 -0.382119
vn -0.325273 0.887917 -0.325272
vn 0.924091 0.382142 -0.004817
vn 0.994235 0.106994 -0.007030
vn 0.924787 0.071421 -0.373723
vn 0.887919 0.325269 -0.325269
vn 0.373722 0.071421 -0.924787
vn 0.007330 0.106970 -0.994235
vn 0.005022 0.382116 -0.924101
vn 0.325264 0.325271 -0.887920
vn 0.005022 0.924100 -0.382118
vn 0.008041 0.999938 -0.007711
vn 0.382142 0.924091 -0.004817
vn 0.325270 0.887918 -0.325270
vn -0.010637 -0.353926 -0.935213
vn -0.637454 -0.469310 -0.611064
vn -0.935246 -0.353852 -0.010200
vn -0.655135 -0.376298 -0.655132
vn -0.924091 -0.382143 -0.004817
vn -0.994235 -0.106994 -0.007030
vn -0.924787 -0.071422 -0.373722
vn -0.887917 -0.325275 -0.325269
vn -0.373722 -0.071421 -0.924787
vn -0.007330 -0.106970 -0.994235
vn -0.005022 -0.382116 -0.924101
vn -0.325265 -0.325269 -0.887921
vn 0.924787 -0.071421 -0.373723
vn 0.994235 -0.106994 -0.007030
vn 0.924091 -0.382142 -0.004817
vn 0.887919 -0.325269 -0.325269
vn 0.935246 -0.353852 -0.010200
vn 0.637454 -0.469311 -0.611064
vn 0.010637 -0.353926 -0.935213
vn 0.655134 -0.376300 -0.655132
vn 0.005022 -0.382116 -0.924101
vn 0.007330 -0.106970 -0.994235
vn 0.373722 -0.071421 -0.924787
vn 0.325266 -0.325270 -0.887920
vn 0.000000 -1.000000 0.000000
vn 0.000000 -1.000000 0.000000
vn 0.000000 -1.000000 0.000000
vn 0.000000 -1.000000 0.000000
vn 0.000000 -1.000000 0.000000
vn 0.000000 -1.000000 0.000000
vn 0.000000 -1.000000 0.000000
vn 0.000000 -1.000000 0.000000
vn 0.000000 -1.000000 0.000000
vn 0.000000 -1.000000 0.000000
vn 0.000000 -1.000000 0.000000
vn 0.000000 -1.000000 0.000000
vn 0.000000 -1.000000 0.000000
vn 0.000000 -1.000000 0.000000
vn 0.000000 -1.000000 0.000000
vn 0.000000 -1.000000 0.000000
vn 0.000000 0.000000 1.000000
vn 0.000000 0.000000 1.000000
vn 0.000000 0.000000 1.000000
vn 0.000000 0.000000 1.000000
vn 0.000000 0.997639 -0.068677
vn 0.000000 0.997639 -0.068677
vn 0.000000 0.997639 -0.068677
vn 0.000000 0.997639 -0.068677
vn 0.000000 0.000000 -1.000000
vn 0.000000 0.000000 -1.000000
vn 0.000000 0.000000 -1.000000
vn 0.000000 0.000000 -1.000000
vn 0.000000 -0.997639 0.068677
vn 0.000000 -0.997639 0.068677
vn 0.000000 -0.997639 0.068677
vn 0.000000 -0.997639 0.068677
vn 0.999350 0.000000 0.036061
vn 0.999350 0.000000 0.036061
vn 0.999350 0.000000 0.036061
vn 0.999350 0.000000 0.036061
vn -0.999350 0.000000 -0.036061
vn -0.999350 0.000000 -0.036061
vn -0.999350 0.000000 -0.036061
vn -0.999350 0.000000 -0.036061
vn 0.000000 0.000000 1.000000
vn 0.000000 0.000000 1.000000
vn 0.000000 0.000000 1.000000
vn 0.000000 0.000000 1.000000
vn 0.000000 0.997639 -0.068677
vn 0.000000 0.997639 -0.068677
vn 0.000000 0.997639 -0.068677
vn 0.000000 0.997639 -0.068677
vn 0.000000 0.000000 -1.000000
vn 0.000000 0.000000 -1.000000
vn 0.000000 0.000000 -1.000000
vn 0.000000 0.000000 -1.000000
vn 0.000000 -0.997639 0.068677
vn 0.000000 -0.997639 0.068677
vn 0.000000 -0.997639 0.068677
vn 0.000000 -0.997639 0.068677
vn 0.999350 0.000000 0.036061
vn 0.999350 0.000000 0.036061
vn 0.999350 0.000000 0.036061
vn 0.999350 0.000000 0.036061
vn -0.999350 0.000000 -0.036061
vn -0.999350 0.000000 -0.036061
vn -0.999350 0.000000 -0.036061
vn -0.999350 0.000000 -0.036061
vn 0.000000 0.000000 1.000000
vn 0.000000 0.000000 1.000000
vn 0.000000 0.000000 1.000000
vn 0.000000 0.000000 1.000000
vn 0.000000 0.997639 -0.068677
vn 0.000000 0.997639 -0.068677
vn 0.000000 0.997639 -0.068677
vn 0.000000 0.997639 -0.068677
vn 0.000000 0.000000 -1.000000
vn 0.000000 0.000000 -1.000000
vn 0.000000 0.000000 -1.000000
vn 0.000000 0.000000 -1.000000
vn 0.000000 -0.997639 0.068677
vn 0.000000 -0.997639 0.068677
vn 0.000000 -0.997639 0.068677
vn 0.000000 -0.997639 0.068677
vn 0.999350 0.000000 0.036061
vn 0.999350 0.000000 0.036061
vn 0.999350 0.000000 0.036061
vn 0.999350 0.000000 0.036061
vn -0.999350 0.000000 -0.036061
vn -0.999350 0.000000 -0.036061
vn -0.999350 0.000000 -0.036061
vn -0.999350 0.000000 -0.036061
vn 0.000000 0.000000 1.000000
vn 0.000000 0.000000 1.000000
vn 0.000000 0.000000 1.000000
vn 0.000000 0.000000 1.000000
vn 0.000000 0.997639 -0.068677
vn 0.000000 0.997639 -0.068677
vn 0.000000 0.997639 -0.068677
vn 0.000000 0.997639 -0.068677
vn 0.000000 0.000000 -1.000000
vn 0.000000 0.000000 -1.000000
vn 0.000000 0.000000 -1.000000
vn 0.000000 0.000000 -1.000000
vn 0.000000 -0.997639 0.068677
vn 0.000000 -0.997639 0.068677
vn 0.000000 -0.997639 0.068677
vn 0.000000 -0.997639 0.068677
vn 0.999350 0.000000 0.036061
vn 0.999350 0.000000 0.036061
vn 0.999350 0.000000 0.036061
vn 0.999350 0.000000 0.036061
vn -0.999350 0.000000 -0.036061
vn -0.999350 0.000000 -0.036061
vn -0.999350 0.000000 -0.036061
vn -0.999350 0.000000 -0.036061
s off
g table1:polySurface1
usemtl table1:initialShadingGroup
f 2/1/1 1/25/2 37/54/3 42/21/4
f 1/26/5 6/22/6 38/8/7 37/53/8
f 4/2/9 3/27/10 11/34/11 10/16/12
f 3/28/13 2/1/14 12/3/15 11/33/16
f 6/22/17 5/29/18 15/37/19 14/23/20
f 5/29/21 4/2/22 16/5/23 15/37/24
f 8/4/25 7/30/26 43/59/27 48/12/28
f 7/31/29 12/3/30 44/13/31 43/58/32
f 10/16/33 9/32/34 23/42/35 22/6/36
f 9/32/37 8/4/38 24/7/39 23/42/40
f 14/23/41 13/35/42 27/46/43 26/24/44
f 13/36/45 18/17/46 28/9/47 27/45/48
f 18/17/49 17/38/50 21/41/51 20/18/52
f 17/38/53 16/5/54 22/6/55 21/41/56
f 20/18/57 19/39/58 35/52/59 34/10/60
f 19/40/61 24/7/62 36/11/63 35/51/64
f 26/24/65 25/43/66 39/56/67 38/8/68
f 25/44/69 30/19/70 40/14/71 39/55/72
f 30/19/73 29/47/74 33/50/75 32/20/76
f 29/47/77 28/9/78 34/10/79 33/50/80
f 32/20/81 31/48/82 47/62/83 46/15/84
f 31/49/85 36/11/86 48/12/87 47/61/88
f 42/21/89 41/57/90 45/60/91 44/13/92
f 41/57/93 40/14/94 46/15/95 45/60/96
f 4/2/97 10/16/98 22/6/99 16/5/100
f 18/17/101 20/18/102 34/10/103 28/9/104
f 30/19/105 32/20/106 46/15/107 40/14/108
f 58/77/109 57/78/110 59/79/111 60/80/112
f 8/4/113 48/12/114 36/11/115 24/7/116
f 38/8/117 6/22/118 14/23/119 26/24/120
f 5/29/121 6/22/122 1/26/123 49/64/124
f 1/25/125 2/1/126 3/28/127 49/63/128
f 3/27/129 4/2/130 5/29/131 49/64/132
f 11/33/133 12/3/134 7/31/135 50/66/136
f 7/30/137 8/4/138 9/32/139 50/65/140
f 9/32/141 10/16/142 11/34/143 50/65/144
f 17/38/145 18/17/146 13/36/147 51/67/148
f 13/35/149 14/23/150 15/37/151 51/67/152
f 15/37/153 16/5/154 17/38/155 51/67/156
f 23/42/157 24/7/158 19/40/159 52/68/160
f 19/39/161 20/18/162 21/41/163 52/68/164
f 21/41/165 22/6/166 23/42/167 52/68/168
f 29/47/169 30/19/170 25/44/171 53/70/172
f 25/43/173 26/24/174 27/46/175 53/69/176
f 27/45/177 28/9/178 29/47/179 53/70/180
f 35/51/181 36/11/182 31/49/183 54/72/184
f 31/48/185 32/20/186 33/50/187 54/71/188
f 33/50/189 34/10/190 35/52/191 54/71/192
f 41/57/193 42/21/194 37/54/195 55/74/196
f 37/53/197 38/8/198 39/56/199 55/73/200
f 39/55/201 40/14/202 41/57/203 55/74/204
f 47/61/205 48/12/206 43/59/207 56/76/208
f 43/58/209 44/13/210 45/60/211 56/75/212
f 45/60/213 46/15/214 47/62/215 56/75/216
f 42/21/217 44/13/218 57/78/219 58/77/220
f 44/13/221 12/3/222 59/79/223 57/78/224
f 12/3/225 2/1/226 60/80/227 59/79/228
f 2/1/229 42/21/230 58/77/231 60/80/232
f 61/81/233 62/82/234 64/84/235 63/83/236
f 63/83/237 64/84/238 66/86/239 65/85/240
f 65/85/241 66/86/242 68/88/243 67/87/244
f 67/87/245 68/88/246 62/90/247 61/89/248
f 62/82/249 68/91/250 66/92/251 64/84/252
f 67/93/253 61/81/254 63/83/255 65/94/256
f 69/95/257 70/96/258 72/98/259 71/97/260
f 71/97/261 72/98/262 74/100/263 73/99/264
f 73/99/265 74/100/266 76/102/267 75/101/268
f 75/101/269 76/102/270 70/104/271 69/103/272
f 70/96/273 76/105/274 74/106/275 72/98/276
f 75/107/277 69/95/278 71/97/279 73/108/280
f 77/109/281 78/110/282 80/112/283 79/111/284
f 79/111/285 80/112/286 82/114/287 81/113/288
f 81/113/289 82/114/290 84/116/291 83/115/292
f 83/115/293 84/116/294 78/118/295 77/117/296
f 78/110/297 84/119/298 82/120/299 80/112/300
f 83/121/301 77/109/302 79/111/303 81/122/304
f 85/123/305 86/124/306 88/126/307 87/125/308
f 87/125/309 88/126/310 90/128/311 89/127/312
f 89/127/313 90/128/314 92/130/315 91/129/316
f 91/129/317 92/130/318 86/132/319 85/131/320
f 86/124/321 92/133/322 90/134/323 88/126/324
f 91/135/325 85/123/326 87/125/327 89/136/328
