# This file uses centimeters as units for non-parametric coordinates.

mtllib tv.mtl
g default
v 0.499998 -0.500000 0.498249
v 0.288581 -0.291478 -0.501143
v 0.499998 0.500000 0.498249
v 0.288581 0.291477 -0.501143
v -0.499998 0.500000 0.501143
v -0.294371 0.291477 -0.499456
v -0.499998 -0.500000 0.501143
v -0.294371 -0.291478 -0.499456
v -0.442542 -0.442543 0.500977
v 0.442541 -0.442543 0.498415
v 0.442541 0.442543 0.498415
v -0.442542 0.442543 0.500977
v -0.374563 -0.374313 0.413755
v 0.374059 -0.374313 0.411588
v 0.374059 0.374312 0.411588
v -0.374563 0.374312 0.413755
vt 0.269121 0.335743
vt 0.598187 0.404403
vt 0.598187 0.596350
vt 0.269121 0.665009
vt 0.933190 0.335743
vt 0.864531 0.665207
vt 0.672583 0.665207
vt 0.603924 0.335743
vt 0.331128 0.002945
vt 0.261515 0.332011
vt 0.069569 0.331455
vt 0.001863 0.001992
vt 0.337362 0.332011
vt 0.405068 0.002548
vt 0.597014 0.001992
vt 0.666626 0.331058
vt 0.529308 0.860689
vt 0.337362 0.860689
vt 0.337362 0.668742
vt 0.529308 0.668742
vt 0.043164 0.710126
vt 0.289660 0.710126
vt 0.289660 0.956623
vt 0.043164 0.956623
vt 0.020781 0.687660
vt 0.312209 0.687660
vt 0.312209 0.979089
vt 0.020781 0.979089
vt 0.001863 0.668742
vt 0.331128 0.668742
vt 0.331128 0.998008
vt 0.001863 0.998008
vt 0.043164 0.956623
vt 0.043164 0.710126
vt 0.289660 0.956623
vt 0.289660 0.710126
vn 0.978348 0.000000 -0.206965
vn 0.978348 0.000000 -0.206965
vn 0.978348 0.000000 -0.206965
vn 0.978348 0.000000 -0.206965
vn -0.000591 0.978943 -0.204131
vn -0.000591 0.978943 -0.204131
vn -0.000591 0.978943 -0.204131
vn -0.000591 0.978943 -0.204131
vn -0.979530 0.000000 -0.201298
vn -0.979530 0.000000 -0.201298
vn -0.979530 0.000000 -0.201298
vn -0.979530 0.000000 -0.201298
vn -0.000591 -0.978943 -0.204131
vn -0.000591 -0.978943 -0.204131
vn -0.000591 -0.978943 -0.204131
vn -0.000591 -0.978943 -0.204131
vn -0.002895 0.000000 -0.999996
vn -0.002895 0.000000 -0.999996
vn -0.002895 0.000000 -0.999996
vn -0.002895 0.000000 -0.999996
vn 0.002895 0.000000 0.999996
vn 0.002895 0.000000 0.999996
vn 0.002895 0.000000 0.999996
vn 0.002895 0.000000 0.999996
vn 0.002895 0.000000 0.999996
vn 0.002895 0.000000 0.999996
vn 0.002895 0.000000 0.999996
vn 0.002895 0.000000 0.999996
vn 0.002895 0.000000 0.999996
vn 0.002895 0.000000 0.999996
vn 0.002895 0.000000 0.999996
vn 0.002895 0.000000 0.999996
vn 0.002895 -0.000000 0.999996
vn 0.002895 -0.000000 0.999996
vn 0.002895 -0.000000 0.999996
vn 0.002895 -0.000000 0.999996
vn 0.002895 0.000000 0.999996
vn 0.002895 0.000000 0.999996
vn 0.002895 0.000000 0.999996
vn 0.002895 0.000000 0.999996
vn 0.001786 0.786961 0.617000
vn 0.001786 0.786961 0.617000
vn 0.001786 0.786961 0.617000
vn 0.001786 0.786961 0.617000
vn -0.785172 0.000000 0.619278
vn -0.785172 0.000000 0.619278
vn -0.785172 0.000000 0.619278
vn -0.785172 0.000000 0.619278
vn 0.001786 -0.786961 0.617000
vn 0.001786 -0.786961 0.617000
vn 0.001786 -0.786961 0.617000
vn 0.001786 -0.786961 0.617000
vn 0.788744 0.000000 0.614722
vn 0.788744 0.000000 0.614722
vn 0.788744 0.000000 0.614722
vn 0.788744 0.000000 0.614722
s off
g tv:tv
usemtl tv:initialShadingGroup
f 1/1/1 2/2/2 4/3/3 3/4/4
f 3/9/5 4/10/6 6/11/7 5/12/8
f 5/5/9 6/6/10 8/7/11 7/8/12
f 7/13/13 8/14/14 2/15/15 1/16/16
f 2/17/17 8/18/18 6/19/19 4/20/20
f 13/34/21 14/36/22 15/35/23 16/33/24
f 7/29/25 1/30/26 10/26/27 9/25/28
f 1/30/29 3/31/30 11/27/31 10/26/32
f 3/31/33 5/32/34 12/28/35 11/27/36
f 5/32/37 7/29/38 9/25/39 12/28/40
f 9/25/41 10/26/42 14/22/43 13/21/44
f 10/26/45 11/27/46 15/23/47 14/22/48
f 11/27/49 12/28/50 16/24/51 15/23/52
f 12/28/53 9/25/54 13/21/55 16/24/56
